<?xml version="1.0" standalone="no"?>
<!DOCTYPE svg PUBLIC "-//W3C//DTD SVG 20010904//EN"
 "http://www.w3.org/TR/2001/REC-SVG-20010904/DTD/svg10.dtd">
<svg version="1.0" xmlns="http://www.w3.org/2000/svg"
 width="498.000000pt" height="495.000000pt" viewBox="0 0 498.000000 495.000000"
 preserveAspectRatio="xMidYMid meet">

<g transform="translate(0.000000,495.000000) scale(0.100000,-0.100000)"
fill="#000000" stroke="none">
<path d="M2681 3354 c-17 -14 -31 -32 -31 -40 0 -11 -29 -14 -161 -14 -160 0
-161 0 -181 25 -19 25 -60 33 -85 17 -20 -13 -31 -55 -21 -83 8 -23 -1 -45
-69 -163 -64 -110 -81 -134 -96 -130 -26 8 -73 -14 -92 -42 -17 -27 -20 -67
-5 -95 14 -26 67 -52 94 -45 18 4 30 -10 86 -110 35 -63 69 -113 75 -110 7 2
12 -2 12 -10 0 -7 -5 -10 -11 -7 -6 4 -5 -1 3 -10 7 -9 11 -23 8 -31 -3 -7 -1
-18 5 -24 6 -6 6 -12 -1 -16 -16 -10 -14 -32 5 -50 24 -25 69 -20 92 9 20 25
21 25 178 25 l159 0 13 -28 c25 -57 97 -68 143 -23 33 33 37 69 13 110 -16 27
-15 29 62 164 64 111 83 137 102 137 29 0 62 34 62 65 0 31 -33 65 -63 65 -15
0 -29 9 -37 25 -7 14 -19 25 -27 25 -16 0 -16 0 2 -38 13 -25 14 -34 3 -51
-10 -16 -10 -27 -1 -51 11 -28 7 -38 -66 -163 -74 -128 -77 -132 -113 -135
-36 -3 -37 -2 -75 70 -23 45 -45 74 -57 76 -16 3 -11 -10 26 -80 44 -81 45
-84 29 -110 l-16 -28 -161 0 c-135 0 -163 3 -168 15 -3 8 -15 15 -26 15 -11 0
-20 4 -20 9 0 5 -8 11 -18 13 -11 3 -51 61 -95 137 l-76 132 17 29 17 30 136
0 c134 0 137 0 143 -23 8 -34 58 -77 98 -83 26 -5 43 0 74 20 59 39 63 43 70
80 6 33 -2 58 -35 111 -11 17 -5 34 46 128 58 107 58 107 93 105 32 -3 38 -9
91 -101 31 -54 59 -99 63 -99 25 1 19 18 -35 111 -60 103 -61 105 -45 132 24
41 20 77 -13 110 -37 37 -79 38 -120 3z m-14 -115 c12 -24 8 -35 -47 -135 -59
-108 -60 -109 -94 -106 -52 5 -102 -23 -123 -69 l-18 -38 -135 -1 -135 0 -17
29 c-16 29 -16 29 60 162 68 117 81 134 109 141 18 5 37 17 43 28 10 19 20 20
178 18 l167 -3 12 -26z"/>
<path d="M2570 2750 c0 -11 2 -20 4 -20 2 0 12 -3 21 -6 14 -6 14 -3 4 20 -14
31 -29 34 -29 6z"/>
<path d="M1844 1871 c-2 -2 -4 -17 -4 -33 0 -28 1 -28 60 -28 l60 0 0 -135 0
-135 30 0 29 0 3 133 3 132 58 3 c56 3 57 4 57 32 l0 29 -146 3 c-80 2 -148 1
-150 -1z"/>
<path d="M2558 1872 l-58 -3 0 -164 0 -165 133 0 c90 0 137 4 145 12 18 18 15
118 -3 138 -14 15 -14 18 0 30 19 16 21 123 3 138 -14 11 -130 19 -220 14z
m172 -97 l0 -35 -85 0 -85 0 0 35 0 35 85 0 85 0 0 -35z m0 -135 l0 -30 -85 0
-85 0 0 30 0 30 85 0 85 0 0 -30z"/>
<path d="M1170 1705 l0 -165 133 0 c170 0 167 -2 167 136 l0 100 -48 47 -48
47 -102 0 -102 0 0 -165z m202 68 c36 -35 38 -40 38 -100 l0 -63 -85 0 -85 0
0 100 0 100 47 0 c41 0 52 -5 85 -37z"/>
<path d="M1557 1822 l-47 -48 0 -117 0 -117 35 0 35 0 0 50 0 50 80 0 80 0 0
-50 0 -50 35 0 35 0 0 165 0 165 -103 0 -103 0 -47 -48z m183 -62 l0 -50 -80
0 c-93 0 -102 12 -48 67 27 28 39 33 80 33 l48 0 0 -50z"/>
<path d="M2197 1822 l-47 -48 0 -117 0 -117 35 0 35 0 0 50 0 50 80 0 80 0 0
-50 0 -50 35 0 35 0 0 165 0 165 -103 0 -103 0 -47 -48z m183 -62 l0 -50 -80
0 c-93 0 -102 12 -48 67 27 28 39 33 80 33 l48 0 0 -50z"/>
<path d="M2850 1851 c-5 -11 -10 -78 -10 -149 0 -166 -4 -162 152 -162 152 0
148 -4 148 164 0 70 -5 136 -10 147 -10 17 -22 19 -140 19 -118 0 -130 -2
-140 -19z m220 -141 l0 -100 -80 0 -80 0 0 100 0 100 80 0 80 0 0 -100z"/>
<path d="M3181 1808 l0 -63 60 -42 59 -43 0 -60 0 -60 30 0 30 0 0 63 0 63 60
42 60 43 0 59 0 60 -35 0 -35 0 0 -47 c0 -45 -3 -50 -42 -75 l-42 -26 -43 29
c-40 28 -43 33 -43 74 0 43 -1 45 -30 45 l-30 0 1 -62z"/>
<path d="M3527 1852 c-12 -13 -17 -37 -17 -84 0 -92 9 -98 138 -98 l102 0 0
-30 0 -30 -85 0 c-69 0 -85 3 -85 15 0 10 -11 15 -35 15 -33 0 -35 -2 -35 -33
0 -58 21 -67 152 -67 141 0 148 5 148 102 0 91 -10 98 -133 98 l-97 0 0 35 0
35 85 0 c78 0 85 -2 85 -20 0 -16 7 -20 30 -20 28 0 30 2 30 38 0 21 -5 43
-12 50 -8 8 -52 12 -133 12 -105 0 -124 -2 -138 -18z"/>
</g>
</svg>
